<svg xmlns="http://www.w3.org/2000/svg" width="165" height="165" viewBox="0 0 33 33"><path d="M4 4h7v7h-7zM12 4h1v1h-1zM15 4h6v1h-3v1h-1v-1h-1v1h-2v1h2v1h-3v1h3v-1h1v-1h1v-1h1v2h1v1h-2v1h-1v3h1v1h-1v3h-1v-1h-1v1h-3v-1h1v-1h-1v-1h-1v-1h-1v-1h2v-5h1v-2h2zM22 4h7v7h-7zM5 5v5h5v-5zM23 5v5h5v-5zM6 6h3v3h-3zM16 6h1v1h-1zM24 6h3v3h-3zM20 7h1v1h-1zM13 10v1h1v-1zM15 10v2h-1v1h-1v1h1v-1h2v-3zM18 10h1v1h-1zM20 10h1v1h-1zM19 11h1v1h-1zM4 12h1v1h-1zM8 12h1v2h-3v1h-2v-1h1v-1h3zM21 12h5v2h1v1h1v1h1v1h-1v1h-1v-1h-2v-1h1v-1h-1v-1h-1v3h-3v1h-1v1h-1v1h-1v-1h-1v-1h1v-4h1v-1h2zM28 12h1v1h-1zM22 13v1h-2v1h-1v2h1v-2h2v1h1v-3zM27 13h1v1h-1zM9 14h2v1h-1v1h-1zM15 14v1h1v-1zM6 15h2v2h-3v1h-1v-2h2zM11 15h1v1h-1zM10 16h1v1h-1zM8 17h1v1h-1zM24 17h1v1h2v1h1v1h-1v1h-2v2h2v2h2v1h-1v2h1v1h-3v-1h-4v-1h-2v-1h2v-1h-2v-6h1v1h2v-2h1zM6 18h1v1h1v1h1v1h-2v-1h-1zM10 18h3v2h-1v-1h-2zM9 19h1v1h-1zM16 19h1v3h-1v-1h-1v-1h1zM25 19v1h1v-1zM4 20h2v1h-2zM10 20h1v1h-1zM13 20h1v2h2v1h-4v-2h1zM18 21h1v1h-1zM21 21v3h3v-3zM4 22h7v7h-7zM17 22h1v1h-1zM22 22h1v1h-1zM5 23v5h5v-5zM16 23h1v2h-1v1h2v-1h2v1h-1v2h-1v-1h-2v1h1v1h-2v-2h-1v1h-1v-2h1v-1h1v-1h1zM6 24h3v3h-3zM12 24h2v1h-2zM24 25v1h-1v1h2v-1h1v1h1v-1h-1v-1zM12 28h1v1h-1zM19 28h1v1h-1z"/></svg>